<svg width="16" height="16" viewBox="0 0 16 16" fill="none" xmlns="http://www.w3.org/2000/svg">
<path d="M7.99998 0C4.80075 0 2.21735 2.5834 2.21735 5.78263C2.21735 6.8981 2.57368 7.96322 3.06944 8.83852L6.83803 15.3609C7.07429 15.7869 7.55069 16 7.99998 16C8.4493 16 8.90243 15.7869 9.16193 15.3609L12.9305 8.84239C13.4302 7.96702 13.7826 6.92126 13.7826 5.78643C13.7826 2.58727 11.1992 0 7.99998 0ZM7.99998 7.4907C6.83803 7.4907 5.88911 6.54177 5.88911 5.37982C5.88911 4.21787 6.83803 3.26895 7.99998 3.26895C9.16193 3.26895 10.1109 4.21787 10.1109 5.37982C10.1109 6.54565 9.16193 7.4907 7.99998 7.4907Z" fill="#FFA800"/>
</svg>
