<svg width="63" height="63" viewBox="0 0 63 63" fill="none" xmlns="http://www.w3.org/2000/svg">
<path d="M31.5 15.75C44.5462 15.75 55.125 31.5 55.125 31.5C55.125 31.5 44.5462 47.25 31.5 47.25C18.4538 47.25 7.875 31.5 7.875 31.5C7.875 31.5 18.4538 15.75 31.5 15.75ZM38.0625 31.5C38.0625 27.8778 35.1222 24.9375 31.5 24.9375C27.8778 24.9375 24.9375 27.8778 24.9375 31.5C24.9375 35.1222 27.8778 38.0625 31.5 38.0625C35.1222 38.0625 38.0625 35.1222 38.0625 31.5Z" fill="#DDE9FF"/>
<path d="M38.0625 31.5C38.0625 35.1241 35.1241 38.0625 31.5 38.0625C27.8759 38.0625 24.9375 35.1241 24.9375 31.5C24.9375 27.8759 27.8759 24.9375 31.5 24.9375C35.1241 24.9375 38.0625 27.8759 38.0625 31.5Z" fill="#DDE9FF"/>
<path d="M55.125 0H44.625C43.176 0 42 1.17599 42 2.625C42 4.07401 43.176 5.25 44.625 5.25H55.125C56.5727 5.25 57.75 6.42728 57.75 7.875V18.375C57.75 19.824 58.926 21 60.375 21C61.824 21 63 19.824 63 18.375V7.875C63 3.53183 59.4682 0 55.125 0Z" fill="#0C44A8"/>
<path d="M7.875 63H18.375C19.824 63 21 61.824 21 60.375C21 58.926 19.824 57.75 18.375 57.75H7.875C6.42728 57.75 5.25 56.5727 5.25 55.125V44.625C5.25 43.176 4.07401 42 2.625 42C1.17599 42 0 43.176 0 44.625V55.125C0 59.4682 3.53183 63 7.875 63Z" fill="#0C44A8"/>
<path d="M5.69604 30.0363C5.10196 30.9226 5.10196 32.0787 5.69604 32.9637C6.15939 33.6552 17.2189 49.875 31.5 49.875C45.7811 49.875 56.8406 33.6552 57.304 32.9637C57.898 32.0774 57.898 30.9213 57.304 30.0363C56.8406 29.3448 45.7811 13.125 31.5 13.125C17.2189 13.125 6.15939 29.3448 5.69604 30.0363ZM31.5 18.375C40.7702 18.375 48.997 27.8041 51.8675 31.5026C49.0034 35.2023 40.8003 44.625 31.5 44.625C22.2298 44.625 14.003 35.1959 11.1325 31.4974C13.9966 27.7977 22.1997 18.375 31.5 18.375Z" fill="#0C44A8"/>
<path d="M31.5 40.6875C36.5648 40.6875 40.6875 36.5648 40.6875 31.5C40.6875 26.4352 36.5648 22.3125 31.5 22.3125C26.4352 22.3125 22.3125 26.4352 22.3125 31.5C22.3125 36.5648 26.4352 40.6875 31.5 40.6875ZM31.5 27.5625C33.6706 27.5625 35.4375 29.3294 35.4375 31.5C35.4375 33.6706 33.6706 35.4375 31.5 35.4375C29.3294 35.4375 27.5625 33.6706 27.5625 31.5C27.5625 29.3294 29.3294 27.5625 31.5 27.5625Z" fill="#0C44A8"/>
</svg>
