<svg width="44" height="44" viewBox="0 0 44 44" fill="none" xmlns="http://www.w3.org/2000/svg">
<g clip-path="url(#clip0)">
<path d="M14.3115 21.1403L17.3627 15.2559C17.5322 14.9411 17.847 14.7716 18.186 14.7958C18.525 14.82 18.8156 15.0622 18.9125 15.4012L21.9879 25.4023L25.0633 15.4012C25.1602 15.0622 25.4507 14.8442 25.7898 14.7958C26.1288 14.7716 26.4678 14.9411 26.6131 15.2559L29.6885 21.1403H43.9758V17.2174C43.9758 15.9097 42.9103 14.82 41.5784 14.82H29.1558L29.1315 12.8343V2.39736C29.1315 1.08971 28.066 0 26.7342 0H17.2174C15.9097 0 14.82 1.06549 14.82 2.39736V14.8442H2.39736C1.08971 14.8442 0 15.9097 0 17.2416V21.1646H14.3115V21.1403Z" fill="url(#paint0_linear)"/>
<path d="M29.18 22.8354C28.8652 22.8354 28.5746 22.6659 28.4293 22.3753L26.0803 17.847L22.8112 28.5261C22.6901 28.8894 22.3753 29.1315 22.0121 29.1315C21.6489 29.1315 21.3098 28.8894 21.213 28.5261L17.9196 17.8712L15.5949 22.3753C15.4496 22.6659 15.1591 22.8354 14.8442 22.8354H0V26.7584C0 28.066 1.06549 29.1557 2.39736 29.1557H14.8442V41.6026C14.8442 42.9103 15.9097 44 17.2416 44H26.8068C28.1145 44 29.2042 42.9345 29.2042 41.6026V29.1557H41.6511C42.9587 29.1557 44.0484 28.0902 44.0484 26.7584V22.8354H29.18Z" fill="url(#paint1_linear)"/>
<path opacity="0.3" d="M26.7826 0H17.2174C15.9097 0 14.82 1.06549 14.82 2.39736V14.8442H2.39736C1.08971 14.8442 0 15.9097 0 17.2416V21.1646H14.3115L17.3627 15.2559C17.5322 14.9411 17.847 14.7716 18.186 14.7958C18.525 14.82 18.8156 15.0622 18.9125 15.4012L19.5905 17.5806L28.8652 1.235C28.4777 0.508531 27.6786 0 26.7826 0Z" fill="white"/>
<path opacity="0.3" d="M17.9196 17.8712L15.5949 22.3753C15.4496 22.6659 15.1591 22.8354 14.8442 22.8354H0V26.7584C0 28.066 1.06549 29.1558 2.39736 29.1558H13.0281L18.4524 19.6147L17.9196 17.8712Z" fill="white"/>
</g>
<defs>
<linearGradient id="paint0_linear" x1="21.9967" y1="-3.52409" x2="21.9967" y2="17.4257" gradientUnits="userSpaceOnUse">
<stop stop-color="#48B0E0"/>
<stop offset="0.8166" stop-color="#2C62D6"/>
</linearGradient>
<linearGradient id="paint1_linear" x1="21.9967" y1="17.9876" x2="21.9967" y2="44.5405" gradientUnits="userSpaceOnUse">
<stop stop-color="#48B0E0"/>
<stop offset="0.8166" stop-color="#2C62D6"/>
</linearGradient>
<clipPath id="clip0">
<rect width="44" height="44" fill="white"/>
</clipPath>
</defs>
</svg>
