<svg width="41" height="41" viewBox="0 0 41 41" fill="none" xmlns="http://www.w3.org/2000/svg">
<g clip-path="url(#clip0)">
<path d="M27.7353 2.41176V0H13.2647V2.41176H6.02942V41H34.9706V2.41176H27.7353ZM15.6765 2.41176H25.3235V4.82353H15.6765V2.41176ZM32.5588 38.5882H8.44118V4.82353H13.2647V7.23529H27.7353V4.82353H32.5588V38.5882Z" fill="#FFA800"/>
<path d="M21.391 15.2196L17.9921 9.55475L16.1371 13.2647H12.0588V15.6765H17.6276L18.1844 14.5629L22.0208 20.9569L23.7809 15.6765H28.9412V13.2647H22.0427L21.391 15.2196Z" fill="#FFA800"/>
<path d="M12.0588 24.1176H15.6765V26.5294H12.0588V24.1176Z" fill="#FFA800"/>
<path d="M18.0883 24.1176H28.9412V26.5294H18.0883V24.1176Z" fill="#FFA800"/>
<path d="M12.0588 28.9412H15.6765V31.353H12.0588V28.9412Z" fill="#FFA800"/>
<path d="M18.0883 28.9412H28.9412V31.353H18.0883V28.9412Z" fill="#FFA800"/>
<path d="M12.0588 33.7646H15.6765V36.1764H12.0588V33.7646Z" fill="#FFA800"/>
<path d="M18.0883 33.7646H28.9412V36.1764H18.0883V33.7646Z" fill="#FFA800"/>
</g>
<defs>
<clipPath id="clip0">
<rect width="41" height="41" fill="white"/>
</clipPath>
</defs>
</svg>
