<svg width="63" height="63" viewBox="0 0 63 63" fill="none" xmlns="http://www.w3.org/2000/svg">
<g clip-path="url(#clip0)">
<path d="M7.21875 20.9737C7.21875 7.917 19.8056 1.96875 31.5 1.96875C43.1944 1.96875 55.7812 7.917 55.7812 20.9737V35.0149C55.7812 36.96 55.5739 38.8658 55.167 40.6718C54.3375 44.268 52.6417 47.8747 50.4079 50.9539C49.1342 55.317 44.0742 57.9028 41.7034 58.6504L40.4539 59.1937C37.6504 60.4144 34.6369 61.0312 31.5 61.0312C18.4669 61.0312 10.0957 50.4761 7.833 40.6718C7.42612 38.8684 7.21875 36.9626 7.21875 35.0175V20.9737Z" fill="#DDE9FF"/>
<path d="M7.21875 38.8762C4.32337 38.8762 1.96875 36.5216 1.96875 33.6262C1.96875 30.7308 4.32337 28.3762 7.21875 28.3762V38.8762Z" fill="#DDE9FF"/>
<path d="M55.7812 28.3762C58.6766 28.3762 61.0312 30.7308 61.0312 33.6262C61.0312 36.5216 58.6766 38.8762 55.7812 38.8762V28.3762Z" fill="#DDE9FF"/>
<path d="M7.21875 24.2813V20.9738C7.21875 7.91438 19.8056 1.96875 31.5 1.96875C43.1944 1.96875 55.7812 7.917 55.7812 20.9738V24.171L51.9776 23.9663C49.1636 23.7011 46.3864 22.638 44.016 20.8924C42.2494 19.6061 40.7925 18.018 39.6769 16.1595L38.0704 13.4873L36.3484 16.086C32.9516 21.2179 27.2422 24.2813 21.0787 24.2813H7.21875Z" fill="#DDE9FF"/>
<path d="M7.21875 40.845C3.23925 40.845 0 37.6083 0 33.6262C0 29.6441 3.23925 26.4075 7.21875 26.4075V30.345C5.41012 30.345 3.9375 31.8176 3.9375 33.6262C3.9375 35.4847 5.48887 36.8996 7.36837 36.9075C7.4445 36.9075 7.52325 36.9048 7.59937 36.8943L8.09813 40.8003C7.80675 40.8397 7.51275 40.845 7.21875 40.845Z" fill="#0C44A8"/>
<path d="M55.7813 40.845C55.4873 40.845 55.1933 40.8397 54.9019 40.803L55.4006 36.897C55.524 36.9127 55.6526 36.9075 55.7813 36.9075C57.5899 36.9075 59.0625 35.4348 59.0625 33.6262C59.0625 31.8176 57.5899 30.345 55.7813 30.345V26.4075C59.7608 26.4075 63 29.6441 63 33.6262C63 37.6083 59.7608 40.845 55.7813 40.845Z" fill="#0C44A8"/>
<path d="M31.5 63C22.3073 63 14.8811 58.5296 9.429 49.7149C7.23975 45.8299 5.25 41.4094 5.25 34.9414V21.2021C5.25 6.636 18.858 0 31.5 0C44.142 0 57.75 6.636 57.75 21.2021V34.9414C57.75 41.4094 55.7603 45.8299 53.6104 49.6466C53.5972 49.6702 53.4818 49.8593 53.4686 49.8803C53.2271 50.2714 52.9935 50.6468 52.7205 51.0195C52.0774 51.8989 50.8462 52.0931 49.9695 51.4526C49.0901 50.8121 48.8959 49.581 49.5364 48.7016C49.749 48.4102 49.9275 48.1163 50.1165 47.8118C52.3582 43.8454 53.8099 40.1914 53.8099 34.9414V21.2021C53.8125 9.33975 42.2467 3.9375 31.5 3.9375C20.7533 3.9375 9.1875 9.33975 9.1875 21.2021V34.9414C9.1875 40.1914 10.6391 43.8454 12.8179 47.712C17.5297 55.3271 23.6539 59.0625 31.5 59.0625C34.9886 59.0625 38.0677 58.338 40.9106 56.847C41.8766 56.343 43.0657 56.7131 43.5697 57.6765C44.0737 58.6399 43.701 59.829 42.7402 60.3356C39.3645 62.1049 35.5845 63 31.5 63Z" fill="#0C44A8"/>
<path d="M21.0735 26.25H7.875V22.3125H21.0735C27.5651 22.3125 33.4005 18.7057 36.3011 12.9019C36.6424 12.2167 37.3406 11.7469 38.1203 11.8151C38.8868 11.8361 39.5693 12.3034 39.8711 13.0069C42.0158 18.0154 46.7171 21.462 52.1404 22.0054L55.3193 22.323L54.9281 26.2395L51.7493 25.9219C46.1055 25.3575 41.0813 22.302 37.9706 17.703C34.0673 23.0475 27.8618 26.25 21.0735 26.25Z" fill="#0C44A8"/>
<path d="M31.5 55.125C28.6046 55.125 26.25 52.7704 26.25 49.875C26.25 46.9796 28.6046 44.625 31.5 44.625C34.3954 44.625 36.75 46.9796 36.75 49.875C36.75 52.7704 34.3954 55.125 31.5 55.125ZM31.5 48.5625C30.7755 48.5625 30.1875 49.1505 30.1875 49.875C30.1875 50.5995 30.7755 51.1875 31.5 51.1875C32.2245 51.1875 32.8125 50.5995 32.8125 49.875C32.8125 49.1505 32.2245 48.5625 31.5 48.5625Z" fill="#0C44A8"/>
<path d="M21.6563 39.375C21.1523 39.375 20.6483 39.1834 20.265 38.7975L16.3275 34.86C15.5584 34.0909 15.5584 32.844 16.3275 32.0749C17.0966 31.3058 18.3435 31.3058 19.1126 32.0749L23.0501 36.0124C23.8193 36.7815 23.8193 38.0284 23.0501 38.7975C22.6643 39.1834 22.1603 39.375 21.6563 39.375Z" fill="#0C44A8"/>
<path d="M17.7188 39.375C17.2148 39.375 16.7108 39.1834 16.3275 38.7975C15.5584 38.0284 15.5584 36.7815 16.3275 36.0124L20.265 32.0749C21.0341 31.3058 22.281 31.3058 23.0501 32.0749C23.8193 32.844 23.8193 34.0909 23.0501 34.86L19.1126 38.7975C18.7268 39.1834 18.2228 39.375 17.7188 39.375Z" fill="#0C44A8"/>
<path d="M45.2812 39.375C44.7772 39.375 44.2732 39.1834 43.89 38.7975L39.9525 34.86C39.1834 34.0909 39.1834 32.844 39.9525 32.0749C40.7216 31.3058 41.9685 31.3058 42.7376 32.0749L46.6751 36.0124C47.4442 36.7815 47.4442 38.0284 46.6751 38.7975C46.2892 39.1834 45.7852 39.375 45.2812 39.375Z" fill="#0C44A8"/>
<path d="M41.3437 39.375C40.8397 39.375 40.3357 39.1834 39.9525 38.7975C39.1834 38.0284 39.1834 36.7815 39.9525 36.0124L43.89 32.0749C44.6591 31.3058 45.906 31.3058 46.6751 32.0749C47.4442 32.844 47.4442 34.0909 46.6751 34.86L42.7376 38.7975C42.3517 39.1834 41.8477 39.375 41.3437 39.375Z" fill="#0C44A8"/>
</g>
<defs>
<clipPath id="clip0">
<rect width="63" height="63" fill="white"/>
</clipPath>
</defs>
</svg>
