<svg width="19" height="19" viewBox="0 0 19 19" fill="none" xmlns="http://www.w3.org/2000/svg">
<path d="M18.6603 17.0715L15.0118 13.423C16.1176 11.9755 16.724 10.2198 16.7243 8.36706C16.7243 6.13437 15.8547 4.03515 14.2757 2.45642C12.6969 0.877685 10.598 0.00811768 8.36504 0.00811768C6.13234 0.00811768 4.03313 0.877685 2.45439 2.45642C-0.804703 5.71579 -0.804703 11.0189 2.45439 14.2777C4.03313 15.8567 6.13234 16.7263 8.36504 16.7263C10.2177 16.726 11.9735 16.1196 13.421 15.0139L17.0695 18.6623C17.289 18.8821 17.5771 18.9919 17.8649 18.9919C18.1528 18.9919 18.4409 18.8821 18.6603 18.6623C19.0998 18.2232 19.0998 17.5107 18.6603 17.0715ZM4.04521 12.6869C1.66338 10.3051 1.66365 6.42935 4.04521 4.04724C5.19905 2.89368 6.73329 2.25812 8.36504 2.25812C9.99706 2.25812 11.531 2.89368 12.6849 4.04724C13.8387 5.20108 14.4743 6.73532 14.4743 8.36706C14.4743 9.99908 13.8387 11.533 12.6849 12.6869C11.531 13.8407 9.99706 14.4763 8.36504 14.4763C6.73329 14.4763 5.19905 13.8407 4.04521 12.6869Z" fill="#FFF7F7" fill-opacity="0.76"/>
</svg>
