<svg width="41" height="41" viewBox="0 0 41 41" fill="none" xmlns="http://www.w3.org/2000/svg">
<path d="M37.3824 23.0644V5.42647C37.3824 2.43427 34.9481 0 31.9559 0C28.9637 0 26.5294 2.43427 26.5294 5.42647V31.9559C26.5294 35.613 23.5541 38.5882 19.8971 38.5882C16.2399 38.5882 13.2647 35.613 13.2647 31.9559V31.3115C15.3059 31.0268 16.8824 29.2707 16.8824 27.1525V25.5215C21.1374 23.657 24.1176 19.4056 24.1176 14.4706V13.2647H21.7059V7.51667C21.7059 4.13127 19.0261 1.36088 15.6765 1.21304V0H13.2647V4.82353H15.6765V3.6289C17.6954 3.77377 19.2941 5.46144 19.2941 7.51667V13.2647H16.8824V14.4706C16.8824 17.1303 14.7185 19.2941 12.0588 19.2941C9.39913 19.2941 7.23529 17.1303 7.23529 14.4706V13.2647H4.82353V7.51667C4.82353 5.46144 6.42221 3.77377 8.44118 3.6289V4.82353H10.8529V0H8.44118V1.21304C5.09156 1.36088 2.41176 4.13127 2.41176 7.51667V13.2647H0V14.4706C0 19.4057 2.9803 23.6571 7.23529 25.5215V27.1525C7.23529 29.2708 8.81178 31.0269 10.8529 31.3115V31.9559C10.8529 36.9429 14.9101 41 19.8971 41C24.8839 41 28.9412 36.9429 28.9412 31.9559V5.42647C28.9412 3.76412 30.2935 2.41176 31.9559 2.41176C33.6182 2.41176 34.9706 3.76412 34.9706 5.42647V23.0644C32.8925 23.6012 31.3529 25.4918 31.3529 27.7353C31.3529 30.395 33.5168 32.5588 36.1765 32.5588C38.8362 32.5588 41 30.395 41 27.7353C41 25.4919 39.4605 23.6012 37.3824 23.0644ZM2.48677 15.6765H4.92402C5.49979 19.094 8.48009 21.7059 12.0588 21.7059C15.6376 21.7059 18.6179 19.094 19.1936 15.6765H21.6309C21.0355 20.4287 16.9698 24.1176 12.0588 24.1176C7.14783 24.1176 3.08215 20.4287 2.48677 15.6765ZM9.64706 27.1525V26.287C11.2115 26.6058 12.8619 26.6148 14.4706 26.287V27.1525C14.4706 28.1388 13.6682 28.9412 12.6819 28.9412H11.4358C10.4495 28.9412 9.64706 28.1388 9.64706 27.1525ZM36.1765 30.1471C34.8466 30.1471 33.7647 29.0651 33.7647 27.7353C33.7647 26.4054 34.8466 25.3235 36.1765 25.3235C37.5063 25.3235 38.5882 26.4054 38.5882 27.7353C38.5882 29.0651 37.5063 30.1471 36.1765 30.1471Z" fill="#FFA800"/>
</svg>
