<svg width="63" height="63" viewBox="0 0 63 63" fill="none" xmlns="http://www.w3.org/2000/svg">
<g clip-path="url(#clip0)">
<path d="M32.6734 61.0311C31.0406 61.0311 29.6389 59.8499 29.337 58.225L27.1005 46.15C26.6726 43.8216 24.6593 42.1311 22.3125 42.1311C19.9658 42.1311 17.9524 43.8216 17.5219 46.1526L15.2854 58.2224C14.9861 59.8525 13.5844 61.0311 11.949 61.0311C10.2113 61.0311 8.75963 59.7081 8.57588 57.9546L7.70175 49.6885C7.37625 46.5989 6.7305 43.5198 5.78813 40.543L4.08188 35.1618C2.68012 30.7518 1.96875 26.1633 1.96875 21.5249C1.96875 17.9785 4.81425 15.0936 8.31338 15.0936C11.2901 15.0936 14.1645 15.8313 17.3539 17.4115C18.9945 18.2279 20.6666 18.64 22.3151 18.64C23.9636 18.64 25.6331 18.2279 27.2711 17.4115C30.4159 15.8523 33.3218 15.0936 36.141 15.0936C39.795 15.0936 42.6563 17.9181 42.6563 21.5249C42.6563 26.1633 41.9449 30.7518 40.5431 35.1591L38.8369 40.5404C37.8945 43.5198 37.2488 46.5963 36.9233 49.6885L36.0491 57.9546C35.8628 59.7081 34.4111 61.0311 32.6734 61.0311Z" fill="#DDE9FF"/>
<path d="M35.4375 13.125C34.3507 13.125 33.4688 12.243 33.4688 11.1563V1.96875C33.4688 0.882 34.3507 0 35.4375 0C36.5243 0 37.4062 0.882 37.4062 1.96875V11.1563C37.4062 12.243 36.5243 13.125 35.4375 13.125Z" fill="#0C44A8"/>
<path d="M40.0311 8.53131H30.8437C29.7569 8.53131 28.8749 7.64931 28.8749 6.56256C28.8749 5.47581 29.7569 4.59381 30.8437 4.59381H40.0311C41.1179 4.59381 41.9999 5.47581 41.9999 6.56256C41.9999 7.64931 41.1179 8.53131 40.0311 8.53131Z" fill="#0C44A8"/>
<path d="M56.4375 31.5001C55.3507 31.5001 54.4687 30.6181 54.4687 29.5313V20.3438C54.4687 19.2571 55.3507 18.3751 56.4375 18.3751C57.5242 18.3751 58.4062 19.2571 58.4062 20.3438V29.5313C58.4062 30.6181 57.5242 31.5001 56.4375 31.5001Z" fill="#0C44A8"/>
<path d="M61.0313 26.9062H51.8438C50.757 26.9062 49.875 26.0242 49.875 24.9374C49.875 23.8507 50.757 22.9687 51.8438 22.9687H61.0313C62.1181 22.9687 63.0001 23.8507 63.0001 24.9374C63.0001 26.0242 62.1181 26.9062 61.0313 26.9062Z" fill="#0C44A8"/>
<path d="M32.34 63C29.5339 63 27.0953 60.963 26.5466 58.1516L24.3941 46.3968C24.2025 45.3731 23.3258 44.625 22.3125 44.625C21.2993 44.625 20.4225 45.3731 20.2309 46.4047L18.081 58.1306C17.5298 60.963 15.0911 63 12.285 63C9.25313 63 6.7305 60.7057 6.41813 57.6634L5.57813 49.6335C5.28675 46.872 4.6935 44.0501 3.81938 41.2466L2.16825 36.0307C0.727125 31.4448 0 26.7277 0 21.9974C0 17.0939 3.92175 13.1249 8.74125 13.1249C12.033 13.1249 15.2198 13.9465 18.6638 15.637C21.1628 16.8944 23.4623 16.8944 25.9403 15.6449C26.6516 15.3036 27.3263 15.0044 28.0035 14.7078C28.9984 14.2694 30.1613 14.7183 30.597 15.7184C31.0354 16.7133 30.5813 17.8761 29.5864 18.3119C28.9511 18.5901 28.3159 18.871 27.678 19.1755C24.129 20.9684 20.4986 20.971 16.9103 19.1598C14.0385 17.7528 11.4214 17.0624 8.925 17.0624C6.09263 17.0624 3.9375 19.2648 3.9375 21.9711C3.9375 26.326 4.60425 30.6494 5.922 34.8468L7.57313 40.0679C8.526 43.1234 9.16913 46.2 9.492 49.2213L10.332 57.2565C10.4396 58.2881 11.277 59.0625 12.285 59.0625C13.2274 59.0625 14.0228 58.3774 14.2118 57.3982L16.359 45.6881C16.9024 42.7874 19.4066 40.6874 22.3125 40.6874C25.2184 40.6874 27.7226 42.7874 28.266 45.6802L30.4159 57.4219C30.6023 58.38 31.3976 59.0625 32.34 59.0625C33.348 59.0625 34.1854 58.2881 34.2904 57.2591L35.1304 49.2213C35.4533 46.1973 36.0964 43.1208 37.0466 40.0732L38.703 34.8416C40.0181 30.6468 40.6849 26.3234 40.6849 21.9948C40.6849 20.8161 40.2885 19.7241 39.5351 18.8133C38.8421 17.9759 38.9603 16.7343 39.8003 16.0413C40.6324 15.3483 41.8766 15.4638 42.5723 16.3064C43.9136 17.9339 44.625 19.8921 44.625 21.9711C44.625 26.7277 43.8979 31.4448 42.462 36.0254L40.8056 41.2544C39.9341 44.0501 39.3409 46.872 39.0495 49.6361L38.2095 57.666C37.8971 60.7057 35.3745 63 32.34 63Z" fill="#0C44A8"/>
</g>
<defs>
<clipPath id="clip0">
<rect width="63" height="63" fill="white"/>
</clipPath>
</defs>
</svg>
